<?xml version="1.0" encoding="UTF-8" standalone="no"?>
<!DOCTYPE svg PUBLIC "-//W3C//DTD SVG 1.1//EN"
 "http://www.w3.org/Graphics/SVG/1.1/DTD/svg11.dtd">
<!-- Generated by graphviz version 2.36.0 (20140111.2315)
 -->
<!-- Title: controllers_diagram Pages: 1 -->
<svg width="832pt" height="713pt"
 viewBox="0.00 0.00 832.00 712.62" xmlns="http://www.w3.org/2000/svg" xmlns:xlink="http://www.w3.org/1999/xlink">
<g id="graph0" class="graph" transform="scale(1 1) rotate(0) translate(4 708.617)">
<title>controllers_diagram</title>
<polygon fill="white" stroke="none" points="-4,4 -4,-708.617 828,-708.617 828,4 -4,4"/>
<!-- _diagram_info -->
<g id="node1" class="node"><title>_diagram_info</title>
<text text-anchor="start" x="624" y="-343.6" font-family="Times,serif" font-size="13.00">Controllers diagram</text>
<text text-anchor="start" x="624" y="-329.6" font-family="Times,serif" font-size="13.00">Date: Apr 19 2014 &#45; 12:52</text>
<text text-anchor="start" x="624" y="-315.6" font-family="Times,serif" font-size="13.00">Migration version: 20140331181840</text>
<text text-anchor="start" x="624" y="-301.6" font-family="Times,serif" font-size="13.00">Generated by RailRoady 1.1.1</text>
<text text-anchor="start" x="624" y="-287.6" font-family="Times,serif" font-size="13.00">http://railroady.prestonlee.com</text>
</g>
<!-- ApplicationController -->
<g id="node2" class="node"><title>ApplicationController</title>
<path fill="none" stroke="black" d="M111.876,-234.719C111.876,-234.719 297.876,-234.719 297.876,-234.719 303.876,-234.719 309.876,-240.719 309.876,-246.719 309.876,-246.719 309.876,-330.719 309.876,-330.719 309.876,-336.719 303.876,-342.719 297.876,-342.719 297.876,-342.719 111.876,-342.719 111.876,-342.719 105.876,-342.719 99.8757,-336.719 99.8757,-330.719 99.8757,-330.719 99.8757,-246.719 99.8757,-246.719 99.8757,-240.719 105.876,-234.719 111.876,-234.719"/>
<text text-anchor="middle" x="204.876" y="-327.519" font-family="Times,serif" font-size="14.00">ApplicationController</text>
<polyline fill="none" stroke="black" points="99.8757,-319.719 309.876,-319.719 "/>
<text text-anchor="start" x="107.876" y="-304.519" font-family="Times,serif" font-size="14.00">_one_time_conditions_valid_188?</text>
<text text-anchor="start" x="107.876" y="-289.519" font-family="Times,serif" font-size="14.00">render_404</text>
<polyline fill="none" stroke="black" points="99.8757,-281.719 309.876,-281.719 "/>
<polyline fill="none" stroke="black" points="99.8757,-257.719 309.876,-257.719 "/>
<text text-anchor="start" x="107.876" y="-242.519" font-family="Times,serif" font-size="14.00">_layout</text>
</g>
<!-- BaseController -->
<g id="node3" class="node"><title>BaseController</title>
<path fill="none" stroke="black" d="M428.649,-253.286C428.649,-253.286 505.649,-253.286 505.649,-253.286 511.649,-253.286 517.649,-259.286 517.649,-265.286 517.649,-265.286 517.649,-349.286 517.649,-349.286 517.649,-355.286 511.649,-361.286 505.649,-361.286 505.649,-361.286 428.649,-361.286 428.649,-361.286 422.649,-361.286 416.649,-355.286 416.649,-349.286 416.649,-349.286 416.649,-265.286 416.649,-265.286 416.649,-259.286 422.649,-253.286 428.649,-253.286"/>
<text text-anchor="middle" x="467.149" y="-346.086" font-family="Times,serif" font-size="14.00">BaseController</text>
<polyline fill="none" stroke="black" points="416.649,-338.286 517.649,-338.286 "/>
<text text-anchor="start" x="424.649" y="-323.086" font-family="Times,serif" font-size="14.00">btu_exists!</text>
<text text-anchor="start" x="424.649" y="-308.086" font-family="Times,serif" font-size="14.00">code_exists!</text>
<polyline fill="none" stroke="black" points="416.649,-300.286 517.649,-300.286 "/>
<polyline fill="none" stroke="black" points="416.649,-276.286 517.649,-276.286 "/>
<text text-anchor="start" x="424.649" y="-261.086" font-family="Times,serif" font-size="14.00">_layout</text>
</g>
<!-- ApplicationController&#45;&gt;BaseController -->
<g id="edge1" class="edge"><title>ApplicationController&#45;&gt;BaseController</title>
<path fill="none" stroke="black" d="M310.041,-296.163C346.667,-298.756 386.108,-301.549 416.311,-303.687"/>
</g>
<!-- FriendshipsController -->
<g id="node7" class="node"><title>FriendshipsController</title>
<path fill="none" stroke="black" d="M12,-439.101C12,-439.101 198,-439.101 198,-439.101 204,-439.101 210,-445.101 210,-451.101 210,-451.101 210,-550.101 210,-550.101 210,-556.101 204,-562.101 198,-562.101 198,-562.101 12,-562.101 12,-562.101 6,-562.101 5.68434e-14,-556.101 5.68434e-14,-550.101 5.68434e-14,-550.101 5.68434e-14,-451.101 5.68434e-14,-451.101 5.68434e-14,-445.101 6,-439.101 12,-439.101"/>
<text text-anchor="middle" x="105" y="-546.901" font-family="Times,serif" font-size="14.00">FriendshipsController</text>
<polyline fill="none" stroke="black" points="5.68434e-14,-539.101 210,-539.101 "/>
<text text-anchor="start" x="8" y="-523.901" font-family="Times,serif" font-size="14.00">_one_time_conditions_valid_266?</text>
<text text-anchor="start" x="8" y="-508.901" font-family="Times,serif" font-size="14.00">approve_friend</text>
<text text-anchor="start" x="8" y="-493.901" font-family="Times,serif" font-size="14.00">request_friend</text>
<polyline fill="none" stroke="black" points="5.68434e-14,-486.101 210,-486.101 "/>
<polyline fill="none" stroke="black" points="5.68434e-14,-462.101 210,-462.101 "/>
<text text-anchor="start" x="8" y="-446.901" font-family="Times,serif" font-size="14.00">_layout</text>
</g>
<!-- ApplicationController&#45;&gt;FriendshipsController -->
<g id="edge5" class="edge"><title>ApplicationController&#45;&gt;FriendshipsController</title>
<path fill="none" stroke="black" d="M179.414,-342.734C165.602,-372.037 148.469,-408.382 134.127,-438.81"/>
</g>
<!-- UsersController -->
<g id="node8" class="node"><title>UsersController</title>
<path fill="none" stroke="black" d="M21.221,-22.5943C21.221,-22.5943 207.221,-22.5943 207.221,-22.5943 213.221,-22.5943 219.221,-28.5943 219.221,-34.5943 219.221,-34.5943 219.221,-133.594 219.221,-133.594 219.221,-139.594 213.221,-145.594 207.221,-145.594 207.221,-145.594 21.221,-145.594 21.221,-145.594 15.221,-145.594 9.22101,-139.594 9.22101,-133.594 9.22101,-133.594 9.22101,-34.5943 9.22101,-34.5943 9.22101,-28.5943 15.221,-22.5943 21.221,-22.5943"/>
<text text-anchor="middle" x="114.221" y="-130.394" font-family="Times,serif" font-size="14.00">UsersController</text>
<polyline fill="none" stroke="black" points="9.22101,-122.594 219.221,-122.594 "/>
<text text-anchor="start" x="17.221" y="-107.394" font-family="Times,serif" font-size="14.00">_one_time_conditions_valid_268?</text>
<text text-anchor="start" x="17.221" y="-92.3943" font-family="Times,serif" font-size="14.00">index</text>
<text text-anchor="start" x="17.221" y="-77.3943" font-family="Times,serif" font-size="14.00">show</text>
<polyline fill="none" stroke="black" points="9.22101,-69.5943 219.221,-69.5943 "/>
<polyline fill="none" stroke="black" points="9.22101,-45.5943 219.221,-45.5943 "/>
<text text-anchor="start" x="17.221" y="-30.3943" font-family="Times,serif" font-size="14.00">_layout</text>
</g>
<!-- ApplicationController&#45;&gt;UsersController -->
<g id="edge6" class="edge"><title>ApplicationController&#45;&gt;UsersController</title>
<path fill="none" stroke="black" d="M180.939,-234.688C168.821,-207.336 154.057,-174.011 141.501,-145.67"/>
</g>
<!-- UserwelcomeController -->
<g id="node9" class="node"><title>UserwelcomeController</title>
<path fill="none" stroke="black" d="M264.162,-0.5C264.162,-0.5 450.162,-0.5 450.162,-0.5 456.162,-0.5 462.162,-6.5 462.162,-12.5 462.162,-12.5 462.162,-111.5 462.162,-111.5 462.162,-117.5 456.162,-123.5 450.162,-123.5 450.162,-123.5 264.162,-123.5 264.162,-123.5 258.162,-123.5 252.162,-117.5 252.162,-111.5 252.162,-111.5 252.162,-12.5 252.162,-12.5 252.162,-6.5 258.162,-0.5 264.162,-0.5"/>
<text text-anchor="middle" x="357.162" y="-108.3" font-family="Times,serif" font-size="14.00">UserwelcomeController</text>
<polyline fill="none" stroke="black" points="252.162,-100.5 462.162,-100.5 "/>
<text text-anchor="start" x="260.162" y="-85.3" font-family="Times,serif" font-size="14.00">_one_time_conditions_valid_270?</text>
<text text-anchor="start" x="260.162" y="-70.3" font-family="Times,serif" font-size="14.00">index</text>
<text text-anchor="start" x="260.162" y="-55.3" font-family="Times,serif" font-size="14.00">show_frame</text>
<polyline fill="none" stroke="black" points="252.162,-47.5 462.162,-47.5 "/>
<polyline fill="none" stroke="black" points="252.162,-23.5 462.162,-23.5 "/>
<text text-anchor="start" x="260.162" y="-8.3" font-family="Times,serif" font-size="14.00">_layout</text>
</g>
<!-- ApplicationController&#45;&gt;UserwelcomeController -->
<g id="edge7" class="edge"><title>ApplicationController&#45;&gt;UserwelcomeController</title>
<path fill="none" stroke="black" d="M241.159,-234.702C263.592,-201.303 292.455,-158.334 315.778,-123.612"/>
</g>
<!-- BtuController -->
<g id="node4" class="node"><title>BtuController</title>
<path fill="none" stroke="black" d="M492.585,-4.93032C492.585,-4.93032 678.585,-4.93032 678.585,-4.93032 684.585,-4.93032 690.585,-10.9303 690.585,-16.9303 690.585,-16.9303 690.585,-190.93 690.585,-190.93 690.585,-196.93 684.585,-202.93 678.585,-202.93 678.585,-202.93 492.585,-202.93 492.585,-202.93 486.585,-202.93 480.585,-196.93 480.585,-190.93 480.585,-190.93 480.585,-16.9303 480.585,-16.9303 480.585,-10.9303 486.585,-4.93032 492.585,-4.93032"/>
<text text-anchor="middle" x="585.585" y="-187.73" font-family="Times,serif" font-size="14.00">BtuController</text>
<polyline fill="none" stroke="black" points="480.585,-179.93 690.585,-179.93 "/>
<text text-anchor="start" x="488.585" y="-164.73" font-family="Times,serif" font-size="14.00">_one_time_conditions_valid_200?</text>
<text text-anchor="start" x="488.585" y="-149.73" font-family="Times,serif" font-size="14.00">_one_time_conditions_valid_202?</text>
<text text-anchor="start" x="488.585" y="-134.73" font-family="Times,serif" font-size="14.00">create</text>
<text text-anchor="start" x="488.585" y="-119.73" font-family="Times,serif" font-size="14.00">destroy</text>
<text text-anchor="start" x="488.585" y="-104.73" font-family="Times,serif" font-size="14.00">index</text>
<text text-anchor="start" x="488.585" y="-89.7303" font-family="Times,serif" font-size="14.00">new</text>
<text text-anchor="start" x="488.585" y="-74.7303" font-family="Times,serif" font-size="14.00">show</text>
<text text-anchor="start" x="488.585" y="-59.7303" font-family="Times,serif" font-size="14.00">update</text>
<polyline fill="none" stroke="black" points="480.585,-51.9303 690.585,-51.9303 "/>
<polyline fill="none" stroke="black" points="480.585,-27.9303 690.585,-27.9303 "/>
<text text-anchor="start" x="488.585" y="-12.7303" font-family="Times,serif" font-size="14.00">_layout</text>
</g>
<!-- BaseController&#45;&gt;BtuController -->
<g id="edge2" class="edge"><title>BaseController&#45;&gt;BtuController</title>
<path fill="none" stroke="black" d="M498.732,-253.057C507.709,-237.644 517.778,-220.356 527.792,-203.161"/>
</g>
<!-- CodeController -->
<g id="node5" class="node"><title>CodeController</title>
<path fill="none" stroke="black" d="M237.899,-371.117C237.899,-371.117 423.899,-371.117 423.899,-371.117 429.899,-371.117 435.899,-377.117 435.899,-383.117 435.899,-383.117 435.899,-692.117 435.899,-692.117 435.899,-698.117 429.899,-704.117 423.899,-704.117 423.899,-704.117 237.899,-704.117 237.899,-704.117 231.899,-704.117 225.899,-698.117 225.899,-692.117 225.899,-692.117 225.899,-383.117 225.899,-383.117 225.899,-377.117 231.899,-371.117 237.899,-371.117"/>
<text text-anchor="middle" x="330.899" y="-688.917" font-family="Times,serif" font-size="14.00">CodeController</text>
<polyline fill="none" stroke="black" points="225.899,-681.117 435.899,-681.117 "/>
<text text-anchor="start" x="233.899" y="-665.917" font-family="Times,serif" font-size="14.00">_one_time_conditions_valid_238?</text>
<text text-anchor="start" x="233.899" y="-650.917" font-family="Times,serif" font-size="14.00">_one_time_conditions_valid_242?</text>
<text text-anchor="start" x="233.899" y="-635.917" font-family="Times,serif" font-size="14.00">_one_time_conditions_valid_246?</text>
<text text-anchor="start" x="233.899" y="-620.917" font-family="Times,serif" font-size="14.00">_one_time_conditions_valid_250?</text>
<text text-anchor="start" x="233.899" y="-605.917" font-family="Times,serif" font-size="14.00">can_alter_code!</text>
<text text-anchor="start" x="233.899" y="-590.917" font-family="Times,serif" font-size="14.00">can_read_code!</text>
<text text-anchor="start" x="233.899" y="-575.917" font-family="Times,serif" font-size="14.00">code_versioning!</text>
<text text-anchor="start" x="233.899" y="-560.917" font-family="Times,serif" font-size="14.00">create</text>
<text text-anchor="start" x="233.899" y="-545.917" font-family="Times,serif" font-size="14.00">destroy</text>
<text text-anchor="start" x="233.899" y="-530.917" font-family="Times,serif" font-size="14.00">fromGuid</text>
<text text-anchor="start" x="233.899" y="-515.917" font-family="Times,serif" font-size="14.00">index</text>
<text text-anchor="start" x="233.899" y="-500.917" font-family="Times,serif" font-size="14.00">new</text>
<text text-anchor="start" x="233.899" y="-485.917" font-family="Times,serif" font-size="14.00">show</text>
<text text-anchor="start" x="233.899" y="-470.917" font-family="Times,serif" font-size="14.00">uniqueId</text>
<text text-anchor="start" x="233.899" y="-455.917" font-family="Times,serif" font-size="14.00">update</text>
<text text-anchor="start" x="233.899" y="-440.917" font-family="Times,serif" font-size="14.00">update_code_attributes</text>
<polyline fill="none" stroke="black" points="225.899,-433.117 435.899,-433.117 "/>
<polyline fill="none" stroke="black" points="225.899,-409.117 435.899,-409.117 "/>
<text text-anchor="start" x="233.899" y="-393.917" font-family="Times,serif" font-size="14.00">_layout</text>
<text text-anchor="start" x="233.899" y="-378.917" font-family="Times,serif" font-size="14.00">destroy_versions_after</text>
</g>
<!-- BaseController&#45;&gt;CodeController -->
<g id="edge3" class="edge"><title>BaseController&#45;&gt;CodeController</title>
<path fill="none" stroke="black" d="M435.205,-361.288C433.317,-364.479 431.377,-367.759 429.394,-371.111"/>
</g>
<!-- CodeDeployController -->
<g id="node6" class="node"><title>CodeDeployController</title>
<path fill="none" stroke="black" d="M482.955,-417.902C482.955,-417.902 668.955,-417.902 668.955,-417.902 674.955,-417.902 680.955,-423.902 680.955,-429.902 680.955,-429.902 680.955,-588.902 680.955,-588.902 680.955,-594.902 674.955,-600.902 668.955,-600.902 668.955,-600.902 482.955,-600.902 482.955,-600.902 476.955,-600.902 470.955,-594.902 470.955,-588.902 470.955,-588.902 470.955,-429.902 470.955,-429.902 470.955,-423.902 476.955,-417.902 482.955,-417.902"/>
<text text-anchor="middle" x="575.955" y="-585.702" font-family="Times,serif" font-size="14.00">CodeDeployController</text>
<polyline fill="none" stroke="black" points="470.955,-577.902 680.955,-577.902 "/>
<text text-anchor="start" x="478.955" y="-562.702" font-family="Times,serif" font-size="14.00">_one_time_conditions_valid_254?</text>
<text text-anchor="start" x="478.955" y="-547.702" font-family="Times,serif" font-size="14.00">_one_time_conditions_valid_256?</text>
<text text-anchor="start" x="478.955" y="-532.702" font-family="Times,serif" font-size="14.00">_one_time_conditions_valid_258?</text>
<text text-anchor="start" x="478.955" y="-517.702" font-family="Times,serif" font-size="14.00">_one_time_conditions_valid_262?</text>
<text text-anchor="start" x="478.955" y="-502.702" font-family="Times,serif" font-size="14.00">printShit</text>
<text text-anchor="start" x="478.955" y="-487.702" font-family="Times,serif" font-size="14.00">stop_code</text>
<text text-anchor="start" x="478.955" y="-472.702" font-family="Times,serif" font-size="14.00">upload_code</text>
<polyline fill="none" stroke="black" points="470.955,-464.902 680.955,-464.902 "/>
<polyline fill="none" stroke="black" points="470.955,-440.902 680.955,-440.902 "/>
<text text-anchor="start" x="478.955" y="-425.702" font-family="Times,serif" font-size="14.00">_layout</text>
</g>
<!-- BaseController&#45;&gt;CodeDeployController -->
<g id="edge4" class="edge"><title>BaseController&#45;&gt;CodeDeployController</title>
<path fill="none" stroke="black" d="M496.307,-361.449C505.623,-378.755 516.209,-398.418 526.551,-417.63"/>
</g>
</g>
</svg>
