<?xml version="1.0" encoding="UTF-8" standalone="no"?>
<!DOCTYPE svg PUBLIC "-//W3C//DTD SVG 1.1//EN"
 "http://www.w3.org/Graphics/SVG/1.1/DTD/svg11.dtd">
<!-- Generated by graphviz version 2.36.0 (20140111.2315)
 -->
<!-- Title: models_diagram Pages: 1 -->
<svg width="788pt" height="336pt"
 viewBox="0.00 0.00 788.00 336.00" xmlns="http://www.w3.org/2000/svg" xmlns:xlink="http://www.w3.org/1999/xlink">
<g id="graph0" class="graph" transform="scale(1 1) rotate(0) translate(4 332)">
<title>models_diagram</title>
<polygon fill="white" stroke="none" points="-4,4 -4,-332 784,-332 784,4 -4,4"/>
<!-- _diagram_info -->
<g id="node1" class="node"><title>_diagram_info</title>
<text text-anchor="start" x="99" y="-313.6" font-family="Times,serif" font-size="13.00">Models diagram</text>
<text text-anchor="start" x="99" y="-299.6" font-family="Times,serif" font-size="13.00">Date: Apr 19 2014 &#45; 12:52</text>
<text text-anchor="start" x="99" y="-285.6" font-family="Times,serif" font-size="13.00">Migration version: 20140331181840</text>
<text text-anchor="start" x="99" y="-271.6" font-family="Times,serif" font-size="13.00">Generated by RailRoady 1.1.1</text>
<text text-anchor="start" x="99" y="-257.6" font-family="Times,serif" font-size="13.00">http://railroady.prestonlee.com</text>
</g>
<!-- Btu -->
<g id="node2" class="node"><title>Btu</title>
<ellipse fill="none" stroke="black" cx="27" cy="-106" rx="27" ry="18"/>
<text text-anchor="middle" x="27" y="-102.3" font-family="Times,serif" font-size="14.00">Btu</text>
</g>
<!-- Code -->
<g id="node3" class="node"><title>Code</title>
<ellipse fill="none" stroke="black" cx="697" cy="-106" rx="29.3479" ry="18"/>
<text text-anchor="middle" x="697" y="-102.3" font-family="Times,serif" font-size="14.00">Code</text>
</g>
<!-- PaperTrail::Version -->
<g id="node7" class="node"><title>PaperTrail::Version</title>
<ellipse fill="none" stroke="black" cx="697" cy="-18" rx="83.2892" ry="18"/>
<text text-anchor="middle" x="697" y="-14.3" font-family="Times,serif" font-size="14.00">PaperTrail::Version</text>
</g>
<!-- Code&#45;&gt;PaperTrail::Version -->
<g id="edge2" class="edge"><title>Code&#45;&gt;PaperTrail::Version</title>
<path fill="none" stroke="#b76d97" d="M697,-79.3391C697,-68.8546 697,-56.7182 697,-46.091"/>
<ellipse fill="none" stroke="#b76d97" cx="697" cy="-83.5966" rx="4" ry="4"/>
<polygon fill="#b76d97" stroke="#b76d97" points="697,-46.084 701.5,-36.084 697,-41.084 697,-36.084 697,-36.084 697,-36.084 697,-41.084 692.5,-36.0841 697,-46.084 697,-46.084"/>
<text text-anchor="middle" x="720.5" y="-58.3" font-family="Times,serif" font-size="14.00">versions</text>
</g>
<!-- CodeUrl -->
<g id="node4" class="node"><title>CodeUrl</title>
<ellipse fill="none" stroke="black" cx="716" cy="-194" rx="42.3701" ry="18"/>
<text text-anchor="middle" x="716" y="-190.3" font-family="Times,serif" font-size="14.00">CodeUrl</text>
</g>
<!-- User -->
<g id="node5" class="node"><title>User</title>
<ellipse fill="none" stroke="black" cx="85" cy="-194" rx="27.4223" ry="18"/>
<text text-anchor="middle" x="85" y="-190.3" font-family="Times,serif" font-size="14.00">User</text>
</g>
<!-- User&#45;&gt;Btu -->
<g id="edge6" class="edge"><title>User&#45;&gt;Btu</title>
<path fill="none" stroke="#1e81d5" d="M69.6556,-170.248C61.5133,-158.175 51.5097,-143.342 43.2371,-131.076"/>
<ellipse fill="none" stroke="#1e81d5" cx="72.1253" cy="-173.91" rx="4.00002" ry="4.00002"/>
<polygon fill="#1e81d5" stroke="#1e81d5" points="43.1621,-130.964 41.3015,-120.158 40.3664,-126.819 37.5707,-122.674 37.5707,-122.674 37.5707,-122.674 40.3664,-126.819 33.8398,-125.19 43.1621,-130.964 43.1621,-130.964"/>
</g>
<!-- User&#45;&gt;Code -->
<g id="edge5" class="edge"><title>User&#45;&gt;Code</title>
<path fill="none" stroke="#c38f12" d="M120.516,-189.818C179.376,-184.381 300.79,-172.476 403,-158 495.277,-144.931 603.054,-125.044 658.973,-114.375"/>
<ellipse fill="none" stroke="#c38f12" cx="116.279" cy="-190.207" rx="4" ry="4"/>
<polygon fill="#c38f12" stroke="#c38f12" points="659.299,-114.313 669.967,-116.852 664.21,-113.372 669.121,-112.432 669.121,-112.432 669.121,-112.432 664.21,-113.372 668.274,-108.012 659.299,-114.313 659.299,-114.313"/>
</g>
<!-- User&#45;&gt;User -->
<g id="edge8" class="edge"><title>User&#45;&gt;User</title>
<path fill="none" stroke="#09cc7d" d="M122.715,-195.282C127.127,-195.046 130,-194.619 130,-194 130,-193.381 127.127,-192.954 122.715,-192.718"/>
<polygon fill="#09cc7d" stroke="#09cc7d" points="122.682,-195.283 112.587,-191.001 117.683,-195.391 112.684,-195.5 112.684,-195.5 112.684,-195.5 117.683,-195.391 112.782,-199.999 122.682,-195.283 122.682,-195.283"/>
<polygon fill="#09cc7d" stroke="#09cc7d" points="122.682,-192.717 112.782,-188.001 117.683,-192.609 112.684,-192.5 112.684,-192.5 112.684,-192.5 117.683,-192.609 112.587,-196.999 122.682,-192.717 122.682,-192.717"/>
<text text-anchor="middle" x="175.5" y="-190.3" font-family="Times,serif" font-size="14.00">pending_invited</text>
</g>
<!-- User&#45;&gt;User -->
<g id="edge9" class="edge"><title>User&#45;&gt;User</title>
<path fill="none" stroke="#967a41" d="M122.619,-196.492C163.711,-197.654 221,-196.823 221,-194 221,-191.177 163.711,-190.346 122.619,-191.508"/>
<polygon fill="#967a41" stroke="#967a41" points="122.56,-196.49 112.717,-191.656 117.563,-196.322 112.566,-196.153 112.566,-196.153 112.566,-196.153 117.563,-196.322 112.414,-200.651 122.56,-196.49 122.56,-196.49"/>
<polygon fill="#967a41" stroke="#967a41" points="122.56,-191.51 112.414,-187.349 117.563,-191.678 112.566,-191.847 112.566,-191.847 112.566,-191.847 117.563,-191.678 112.717,-196.344 122.56,-191.51 122.56,-191.51"/>
<text text-anchor="middle" x="240.5" y="-190.3" font-family="Times,serif" font-size="14.00">invited</text>
</g>
<!-- User&#45;&gt;User -->
<g id="edge11" class="edge"><title>User&#45;&gt;User</title>
<path fill="none" stroke="#80ed33" d="M122.42,-197.318C175.362,-199.643 260,-198.537 260,-194 260,-189.463 175.362,-188.357 122.42,-190.682"/>
<polygon fill="#80ed33" stroke="#80ed33" points="122.277,-197.311 112.516,-192.313 117.283,-197.059 112.289,-196.807 112.289,-196.807 112.289,-196.807 117.283,-197.059 112.063,-201.302 122.277,-197.311 122.277,-197.311"/>
<polygon fill="#80ed33" stroke="#80ed33" points="122.277,-190.689 112.063,-186.698 117.283,-190.941 112.289,-191.193 112.289,-191.193 112.289,-191.193 117.283,-190.941 112.516,-195.687 122.277,-190.689 122.277,-190.689"/>
<text text-anchor="middle" x="316" y="-190.3" font-family="Times,serif" font-size="14.00">pending_invited_by</text>
</g>
<!-- User&#45;&gt;User -->
<g id="edge12" class="edge"><title>User&#45;&gt;User</title>
<path fill="none" stroke="#ab0e65" d="M122.456,-197.591C202.524,-201.732 372,-200.535 372,-194 372,-187.465 202.524,-186.268 122.456,-190.409"/>
<polygon fill="#ab0e65" stroke="#ab0e65" points="122.219,-197.577 112.495,-192.508 117.227,-197.289 112.235,-197.001 112.235,-197.001 112.235,-197.001 117.227,-197.289 111.976,-201.493 122.219,-197.577 122.219,-197.577"/>
<polygon fill="#ab0e65" stroke="#ab0e65" points="122.219,-190.423 111.976,-186.507 117.227,-190.711 112.235,-190.999 112.235,-190.999 112.235,-190.999 117.227,-190.711 112.495,-195.492 122.219,-190.423 122.219,-190.423"/>
<text text-anchor="middle" x="402" y="-190.3" font-family="Times,serif" font-size="14.00">invited_by</text>
</g>
<!-- User&#45;&gt;User -->
<g id="edge14" class="edge"><title>User&#45;&gt;User</title>
<path fill="none" stroke="#cb5e4c" d="M122.424,-198.057C215.312,-203.74 432,-202.388 432,-194 432,-185.612 215.312,-184.26 122.424,-189.943"/>
<polygon fill="#cb5e4c" stroke="#cb5e4c" points="122.233,-198.044 112.56,-192.879 117.244,-197.706 112.256,-197.369 112.256,-197.369 112.256,-197.369 117.244,-197.706 111.952,-201.858 122.233,-198.044 122.233,-198.044"/>
<polygon fill="#cb5e4c" stroke="#cb5e4c" points="122.233,-189.956 111.952,-186.142 117.244,-190.294 112.256,-190.631 112.256,-190.631 112.256,-190.631 117.244,-190.294 112.56,-195.121 122.233,-189.956 122.233,-189.956"/>
<text text-anchor="middle" x="460" y="-190.3" font-family="Times,serif" font-size="14.00">blockades</text>
</g>
<!-- User&#45;&gt;User -->
<g id="edge15" class="edge"><title>User&#45;&gt;User</title>
<path fill="none" stroke="#e219e4" d="M122.13,-198.453C226.055,-205.749 488,-204.265 488,-194 488,-183.735 226.055,-182.251 122.13,-189.547"/>
<polygon fill="#e219e4" stroke="#e219e4" points="121.969,-198.441 112.346,-193.184 116.984,-198.056 111.999,-197.67 111.999,-197.67 111.999,-197.67 116.984,-198.056 111.652,-202.157 121.969,-198.441 121.969,-198.441"/>
<polygon fill="#e219e4" stroke="#e219e4" points="121.969,-189.559 111.652,-185.843 116.984,-189.944 111.999,-190.33 111.999,-190.33 111.999,-190.33 116.984,-189.944 112.346,-194.816 121.969,-189.559 121.969,-189.559"/>
<text text-anchor="middle" x="526.5" y="-190.3" font-family="Times,serif" font-size="14.00">blockades_by</text>
</g>
<!-- Amistad::Friendships::UserFriendship -->
<g id="node8" class="node"><title>Amistad::Friendships::UserFriendship</title>
<ellipse fill="none" stroke="black" cx="222" cy="-106" rx="150.205" ry="18"/>
<text text-anchor="middle" x="222" y="-102.3" font-family="Times,serif" font-size="14.00">Amistad::Friendships::UserFriendship</text>
</g>
<!-- User&#45;&gt;Amistad::Friendships::UserFriendship -->
<g id="edge7" class="edge"><title>User&#45;&gt;Amistad::Friendships::UserFriendship</title>
<path fill="none" stroke="#747cb7" d="M79.5977,-168.084C79.0466,-159.018 80.2792,-149.232 86,-142 91.9572,-134.469 107.124,-128.259 125.27,-123.27"/>
<ellipse fill="none" stroke="#747cb7" cx="80.0675" cy="-172.141" rx="4.00001" ry="4.00001"/>
<polygon fill="#747cb7" stroke="#747cb7" points="125.311,-123.259 136.116,-125.13 130.154,-122.016 134.997,-120.772 134.997,-120.772 134.997,-120.772 130.154,-122.016 133.877,-116.413 125.311,-123.259 125.311,-123.259"/>
<text text-anchor="middle" x="117.5" y="-146.3" font-family="Times,serif" font-size="14.00">friendships</text>
</g>
<!-- User&#45;&gt;Amistad::Friendships::UserFriendship -->
<g id="edge10" class="edge"><title>User&#45;&gt;Amistad::Friendships::UserFriendship</title>
<path fill="none" stroke="#f93f41" d="M113.215,-178.429C124.502,-172.379 137.523,-165.118 149,-158 150.116,-157.308 170.617,-142.98 189.608,-129.688"/>
<ellipse fill="none" stroke="#f93f41" cx="109.615" cy="-180.34" rx="4.00002" ry="4.00002"/>
<polygon fill="#f93f41" stroke="#f93f41" points="189.68,-129.638 200.453,-127.589 193.776,-126.77 197.872,-123.903 197.872,-123.903 197.872,-123.903 193.776,-126.77 195.291,-120.216 189.68,-129.638 189.68,-129.638"/>
<text text-anchor="middle" x="226" y="-146.3" font-family="Times,serif" font-size="14.00">inverse_friendships</text>
</g>
<!-- User&#45;&gt;Amistad::Friendships::UserFriendship -->
<g id="edge13" class="edge"><title>User&#45;&gt;Amistad::Friendships::UserFriendship</title>
<path fill="none" stroke="#673e3d" d="M120.681,-191.95C171.762,-189.609 261.816,-182.086 282,-158 290.86,-147.427 283.415,-137.266 271.142,-128.835"/>
<ellipse fill="none" stroke="#673e3d" cx="116.527" cy="-192.125" rx="4" ry="4"/>
<polygon fill="#673e3d" stroke="#673e3d" points="271.036,-128.77 264.848,-119.717 266.769,-126.164 262.503,-123.557 262.503,-123.557 262.503,-123.557 266.769,-126.164 260.157,-127.397 271.036,-128.77 271.036,-128.77"/>
<text text-anchor="middle" x="342" y="-146.3" font-family="Times,serif" font-size="14.00">blocked_friendships</text>
</g>
<!-- ActiveRecord::Base -->
<g id="node6" class="node"><title>ActiveRecord::Base</title>
<ellipse fill="none" stroke="black" cx="401" cy="-289" rx="83.2649" ry="18"/>
<text text-anchor="middle" x="401" y="-285.3" font-family="Times,serif" font-size="14.00">ActiveRecord::Base</text>
</g>
<!-- ActiveRecord::Base&#45;&gt;Btu -->
<g id="edge1" class="edge"><title>ActiveRecord::Base&#45;&gt;Btu</title>
<path fill="none" stroke="black" d="M368.106,-272.271C350.611,-264.497 328.528,-255.604 308,-250 251.67,-234.621 90.354,-252.196 48,-212 23.998,-189.221 23.2211,-147.356 24.9759,-123.959"/>
</g>
<!-- ActiveRecord::Base&#45;&gt;Code -->
<g id="edge3" class="edge"><title>ActiveRecord::Base&#45;&gt;Code</title>
<path fill="none" stroke="black" d="M479.881,-282.979C576.434,-274.998 731.519,-255.606 767,-212 792.443,-180.731 745.149,-140.168 716.534,-119.825"/>
</g>
<!-- ActiveRecord::Base&#45;&gt;CodeUrl -->
<g id="edge4" class="edge"><title>ActiveRecord::Base&#45;&gt;CodeUrl</title>
<path fill="none" stroke="black" d="M450.108,-274.358C503.051,-259.523 589.731,-234.863 664,-212 670.445,-210.016 677.315,-207.825 683.878,-205.694"/>
</g>
<!-- ActiveRecord::Base&#45;&gt;User -->
<g id="edge16" class="edge"><title>ActiveRecord::Base&#45;&gt;User</title>
<path fill="none" stroke="black" d="M366.56,-272.522C349.218,-265.091 327.735,-256.428 308,-250 238.046,-227.217 153.095,-208.706 111.099,-200.143"/>
</g>
</g>
</svg>
