<?xml version="1.0" encoding="UTF-8" standalone="no"?>
<!DOCTYPE svg PUBLIC "-//W3C//DTD SVG 1.1//EN"
 "http://www.w3.org/Graphics/SVG/1.1/DTD/svg11.dtd">
<!-- Generated by graphviz version 2.36.0 (20140111.2315)
 -->
<!-- Title: models_diagram Pages: 1 -->
<svg width="1062pt" height="704pt"
 viewBox="0.00 0.00 1062.46 704.00" xmlns="http://www.w3.org/2000/svg" xmlns:xlink="http://www.w3.org/1999/xlink">
<g id="graph0" class="graph" transform="scale(1 1) rotate(0) translate(4 700)">
<title>models_diagram</title>
<polygon fill="white" stroke="none" points="-4,4 -4,-700 1058.46,-700 1058.46,4 -4,4"/>
<!-- _diagram_info -->
<g id="node1" class="node"><title>_diagram_info</title>
<text text-anchor="start" x="262" y="-681.6" font-family="Times,serif" font-size="13.00">Models diagram</text>
<text text-anchor="start" x="262" y="-667.6" font-family="Times,serif" font-size="13.00">Date: Apr 19 2014 &#45; 12:52</text>
<text text-anchor="start" x="262" y="-653.6" font-family="Times,serif" font-size="13.00">Migration version: 20140331181840</text>
<text text-anchor="start" x="262" y="-639.6" font-family="Times,serif" font-size="13.00">Generated by RailRoady 1.1.1</text>
<text text-anchor="start" x="262" y="-625.6" font-family="Times,serif" font-size="13.00">http://railroady.prestonlee.com</text>
</g>
<!-- Btu -->
<g id="node2" class="node"><title>Btu</title>
<path fill="none" stroke="black" d="M12,-103.5C12,-103.5 122,-103.5 122,-103.5 128,-103.5 134,-109.5 134,-115.5 134,-115.5 134,-212.5 134,-212.5 134,-218.5 128,-224.5 122,-224.5 122,-224.5 12,-224.5 12,-224.5 6,-224.5 0,-218.5 0,-212.5 0,-212.5 0,-115.5 0,-115.5 0,-109.5 6,-103.5 12,-103.5"/>
<text text-anchor="middle" x="67" y="-209.3" font-family="Times,serif" font-size="14.00">Btu</text>
<polyline fill="none" stroke="black" points="0,-201.5 134,-201.5 "/>
<text text-anchor="start" x="8" y="-186.3" font-family="Times,serif" font-size="14.00">id :integer</text>
<text text-anchor="start" x="8" y="-171.3" font-family="Times,serif" font-size="14.00">btuID :string</text>
<text text-anchor="start" x="8" y="-156.3" font-family="Times,serif" font-size="14.00">created_at :datetime</text>
<text text-anchor="start" x="8" y="-141.3" font-family="Times,serif" font-size="14.00">updated_at :datetime</text>
<text text-anchor="start" x="8" y="-126.3" font-family="Times,serif" font-size="14.00">user_id :integer</text>
<text text-anchor="start" x="8" y="-111.3" font-family="Times,serif" font-size="14.00">title :string</text>
</g>
<!-- Code -->
<g id="node3" class="node"><title>Code</title>
<path fill="none" stroke="black" d="M835,-88.5C835,-88.5 945,-88.5 945,-88.5 951,-88.5 957,-94.5 957,-100.5 957,-100.5 957,-227.5 957,-227.5 957,-233.5 951,-239.5 945,-239.5 945,-239.5 835,-239.5 835,-239.5 829,-239.5 823,-233.5 823,-227.5 823,-227.5 823,-100.5 823,-100.5 823,-94.5 829,-88.5 835,-88.5"/>
<text text-anchor="middle" x="890" y="-224.3" font-family="Times,serif" font-size="14.00">Code</text>
<polyline fill="none" stroke="black" points="823,-216.5 957,-216.5 "/>
<text text-anchor="start" x="831" y="-201.3" font-family="Times,serif" font-size="14.00">id :integer</text>
<text text-anchor="start" x="831" y="-186.3" font-family="Times,serif" font-size="14.00">created_at :datetime</text>
<text text-anchor="start" x="831" y="-171.3" font-family="Times,serif" font-size="14.00">updated_at :datetime</text>
<text text-anchor="start" x="831" y="-156.3" font-family="Times,serif" font-size="14.00">codetext :binary</text>
<text text-anchor="start" x="831" y="-141.3" font-family="Times,serif" font-size="14.00">user_id :integer</text>
<text text-anchor="start" x="831" y="-126.3" font-family="Times,serif" font-size="14.00">title :string</text>
<text text-anchor="start" x="831" y="-111.3" font-family="Times,serif" font-size="14.00">description :string</text>
<text text-anchor="start" x="831" y="-96.3" font-family="Times,serif" font-size="14.00">privacy :string</text>
</g>
<!-- PaperTrail::Version -->
<g id="node7" class="node"><title>PaperTrail::Version</title>
<ellipse fill="none" stroke="black" cx="890" cy="-18" rx="83.2892" ry="18"/>
<text text-anchor="middle" x="890" y="-14.3" font-family="Times,serif" font-size="14.00">PaperTrail::Version</text>
</g>
<!-- Code&#45;&gt;PaperTrail::Version -->
<g id="edge2" class="edge"><title>Code&#45;&gt;PaperTrail::Version</title>
<path fill="none" stroke="#760678" d="M890,-80.2201C890,-68.0813 890,-56.3607 890,-46.481"/>
<ellipse fill="none" stroke="#760678" cx="890" cy="-84.4692" rx="4" ry="4"/>
<polygon fill="#760678" stroke="#760678" points="890,-46.1844 894.5,-36.1843 890,-41.1844 890,-36.1844 890,-36.1844 890,-36.1844 890,-41.1844 885.5,-36.1844 890,-46.1844 890,-46.1844"/>
<text text-anchor="middle" x="913.5" y="-58.3" font-family="Times,serif" font-size="14.00">versions</text>
</g>
<!-- CodeUrl -->
<g id="node4" class="node"><title>CodeUrl</title>
<path fill="none" stroke="black" d="M874,-383C874,-383 984,-383 984,-383 990,-383 996,-389 996,-395 996,-395 996,-477 996,-477 996,-483 990,-489 984,-489 984,-489 874,-489 874,-489 868,-489 862,-483 862,-477 862,-477 862,-395 862,-395 862,-389 868,-383 874,-383"/>
<text text-anchor="middle" x="929" y="-473.8" font-family="Times,serif" font-size="14.00">CodeUrl</text>
<polyline fill="none" stroke="black" points="862,-466 996,-466 "/>
<text text-anchor="start" x="870" y="-450.8" font-family="Times,serif" font-size="14.00">id :integer</text>
<text text-anchor="start" x="870" y="-435.8" font-family="Times,serif" font-size="14.00">guid :string</text>
<text text-anchor="start" x="870" y="-420.8" font-family="Times,serif" font-size="14.00">created_at :datetime</text>
<text text-anchor="start" x="870" y="-405.8" font-family="Times,serif" font-size="14.00">updated_at :datetime</text>
<text text-anchor="start" x="870" y="-390.8" font-family="Times,serif" font-size="14.00">codetext :binary</text>
</g>
<!-- User -->
<g id="node5" class="node"><title>User</title>
<path fill="none" stroke="black" d="M107.5,-293C107.5,-293 288.5,-293 288.5,-293 294.5,-293 300.5,-299 300.5,-305 300.5,-305 300.5,-567 300.5,-567 300.5,-573 294.5,-579 288.5,-579 288.5,-579 107.5,-579 107.5,-579 101.5,-579 95.5,-573 95.5,-567 95.5,-567 95.5,-305 95.5,-305 95.5,-299 101.5,-293 107.5,-293"/>
<text text-anchor="middle" x="198" y="-563.8" font-family="Times,serif" font-size="14.00">User</text>
<polyline fill="none" stroke="black" points="95.5,-556 300.5,-556 "/>
<text text-anchor="start" x="103.5" y="-540.8" font-family="Times,serif" font-size="14.00">id :integer</text>
<text text-anchor="start" x="103.5" y="-525.8" font-family="Times,serif" font-size="14.00">isTeacher :boolean</text>
<text text-anchor="start" x="103.5" y="-510.8" font-family="Times,serif" font-size="14.00">email :string</text>
<text text-anchor="start" x="103.5" y="-495.8" font-family="Times,serif" font-size="14.00">name :string</text>
<text text-anchor="start" x="103.5" y="-480.8" font-family="Times,serif" font-size="14.00">school :string</text>
<text text-anchor="start" x="103.5" y="-465.8" font-family="Times,serif" font-size="14.00">created_at :datetime</text>
<text text-anchor="start" x="103.5" y="-450.8" font-family="Times,serif" font-size="14.00">updated_at :datetime</text>
<text text-anchor="start" x="103.5" y="-435.8" font-family="Times,serif" font-size="14.00">encrypted_password :string</text>
<text text-anchor="start" x="103.5" y="-420.8" font-family="Times,serif" font-size="14.00">reset_password_token :string</text>
<text text-anchor="start" x="103.5" y="-405.8" font-family="Times,serif" font-size="14.00">reset_password_sent_at :datetime</text>
<text text-anchor="start" x="103.5" y="-390.8" font-family="Times,serif" font-size="14.00">remember_created_at :datetime</text>
<text text-anchor="start" x="103.5" y="-375.8" font-family="Times,serif" font-size="14.00">sign_in_count :integer</text>
<text text-anchor="start" x="103.5" y="-360.8" font-family="Times,serif" font-size="14.00">current_sign_in_at :datetime</text>
<text text-anchor="start" x="103.5" y="-345.8" font-family="Times,serif" font-size="14.00">last_sign_in_at :datetime</text>
<text text-anchor="start" x="103.5" y="-330.8" font-family="Times,serif" font-size="14.00">current_sign_in_ip :string</text>
<text text-anchor="start" x="103.5" y="-315.8" font-family="Times,serif" font-size="14.00">last_sign_in_ip :string</text>
<text text-anchor="start" x="103.5" y="-300.8" font-family="Times,serif" font-size="14.00">about_me :string</text>
</g>
<!-- User&#45;&gt;Btu -->
<g id="edge6" class="edge"><title>User&#45;&gt;Btu</title>
<path fill="none" stroke="#b04569" d="M125.504,-285.58C116.788,-267.617 108.239,-249.997 100.485,-234.014"/>
<ellipse fill="none" stroke="#b04569" cx="127.301" cy="-289.285" rx="4.00002" ry="4.00002"/>
<polygon fill="#b04569" stroke="#b04569" points="100.381,-233.8 100.064,-222.838 98.198,-229.301 96.0154,-224.803 96.0154,-224.803 96.0154,-224.803 98.198,-229.301 91.9667,-226.767 100.381,-233.8 100.381,-233.8"/>
</g>
<!-- User&#45;&gt;Code -->
<g id="edge5" class="edge"><title>User&#45;&gt;Code</title>
<path fill="none" stroke="#633665" d="M308.53,-391.874C449.79,-336.758 690.684,-242.768 813.341,-194.91"/>
<ellipse fill="none" stroke="#633665" cx="304.579" cy="-393.416" rx="4.00001" ry="4.00001"/>
<polygon fill="#633665" stroke="#633665" points="813.366,-194.9 824.318,-195.458 818.024,-193.083 822.682,-191.266 822.682,-191.266 822.682,-191.266 818.024,-193.083 821.047,-187.073 813.366,-194.9 813.366,-194.9"/>
</g>
<!-- User&#45;&gt;User -->
<g id="edge8" class="edge"><title>User&#45;&gt;User</title>
<path fill="none" stroke="#379299" d="M310.874,-438.997C315.389,-438.219 318,-437.219 318,-436 318,-434.781 315.389,-433.781 310.874,-433.003"/>
<polygon fill="#379299" stroke="#379299" points="310.778,-439.009 300.326,-435.691 305.811,-439.585 300.845,-440.161 300.845,-440.161 300.845,-440.161 305.811,-439.585 301.363,-444.631 310.778,-439.009 310.778,-439.009"/>
<polygon fill="#379299" stroke="#379299" points="310.778,-432.991 301.363,-427.369 305.811,-432.415 300.845,-431.839 300.845,-431.839 300.845,-431.839 305.811,-432.415 300.326,-436.309 310.778,-432.991 310.778,-432.991"/>
<text text-anchor="middle" x="363.5" y="-432.3" font-family="Times,serif" font-size="14.00">pending_invited</text>
</g>
<!-- User&#45;&gt;User -->
<g id="edge9" class="edge"><title>User&#45;&gt;User</title>
<path fill="none" stroke="#092ed0" d="M310.903,-446.076C361.831,-446.577 409,-443.218 409,-436 409,-428.782 361.831,-425.423 310.903,-425.924"/>
<polygon fill="#092ed0" stroke="#092ed0" points="310.678,-446.073 300.746,-441.425 305.679,-445.999 300.679,-445.925 300.679,-445.925 300.679,-445.925 305.679,-445.999 300.613,-450.424 310.678,-446.073 310.678,-446.073"/>
<polygon fill="#092ed0" stroke="#092ed0" points="310.678,-425.927 300.613,-421.576 305.679,-426.001 300.679,-426.075 300.679,-426.075 300.679,-426.075 305.679,-426.001 300.746,-430.575 310.678,-425.927 310.678,-425.927"/>
<text text-anchor="middle" x="428.5" y="-432.3" font-family="Times,serif" font-size="14.00">invited</text>
</g>
<!-- User&#45;&gt;User -->
<g id="edge11" class="edge"><title>User&#45;&gt;User</title>
<path fill="none" stroke="#d8930f" d="M310.982,-450.666C378.462,-452.889 448,-448.001 448,-436 448,-423.999 378.462,-419.111 310.982,-421.334"/>
<polygon fill="#d8930f" stroke="#d8930f" points="310.609,-450.652 300.789,-445.771 305.612,-450.46 300.616,-450.268 300.616,-450.268 300.616,-450.268 305.612,-450.46 300.443,-454.764 310.609,-450.652 310.609,-450.652"/>
<polygon fill="#d8930f" stroke="#d8930f" points="310.609,-421.348 300.443,-417.236 305.612,-421.54 300.616,-421.732 300.616,-421.732 300.616,-421.732 305.612,-421.54 300.789,-426.229 310.609,-421.348 310.609,-421.348"/>
<text text-anchor="middle" x="504" y="-432.3" font-family="Times,serif" font-size="14.00">pending_invited_by</text>
</g>
<!-- User&#45;&gt;User -->
<g id="edge12" class="edge"><title>User&#45;&gt;User</title>
<path fill="none" stroke="#d4f42d" d="M310.803,-453.6C419.061,-460.251 560,-454.384 560,-436 560,-417.616 419.061,-411.749 310.803,-418.4"/>
<polygon fill="#d4f42d" stroke="#d4f42d" points="310.744,-453.596 301.06,-448.45 305.754,-453.268 300.765,-452.94 300.765,-452.94 300.765,-452.94 305.754,-453.268 300.47,-457.43 310.744,-453.596 310.744,-453.596"/>
<polygon fill="#d4f42d" stroke="#d4f42d" points="310.744,-418.404 300.47,-414.57 305.754,-418.732 300.765,-419.06 300.765,-419.06 300.765,-419.06 305.754,-418.732 301.06,-423.55 310.744,-418.404 310.744,-418.404"/>
<text text-anchor="middle" x="590" y="-432.3" font-family="Times,serif" font-size="14.00">invited_by</text>
</g>
<!-- User&#45;&gt;User -->
<g id="edge14" class="edge"><title>User&#45;&gt;User</title>
<path fill="none" stroke="#3bf3e4" d="M310.792,-456.755C438.433,-466.954 620,-460.035 620,-436 620,-411.965 438.433,-405.046 310.792,-415.245"/>
<polygon fill="#3bf3e4" stroke="#3bf3e4" points="310.51,-456.731 300.925,-451.405 305.528,-456.31 300.545,-455.889 300.545,-455.889 300.545,-455.889 305.528,-456.31 300.166,-460.373 310.51,-456.731 310.51,-456.731"/>
<polygon fill="#3bf3e4" stroke="#3bf3e4" points="310.51,-415.269 300.166,-411.627 305.528,-415.69 300.545,-416.111 300.545,-416.111 300.545,-416.111 305.528,-415.69 300.925,-420.595 310.51,-415.269 310.51,-415.269"/>
<text text-anchor="middle" x="648" y="-432.3" font-family="Times,serif" font-size="14.00">blockades</text>
</g>
<!-- User&#45;&gt;User -->
<g id="edge15" class="edge"><title>User&#45;&gt;User</title>
<path fill="none" stroke="#d43491" d="M310.808,-459.649C455.418,-473.662 676,-465.779 676,-436 676,-406.221 455.418,-398.338 310.808,-412.351"/>
<polygon fill="#d43491" stroke="#d43491" points="310.48,-459.616 300.988,-454.125 305.506,-459.109 300.532,-458.602 300.532,-458.602 300.532,-458.602 305.506,-459.109 300.076,-463.079 310.48,-459.616 310.48,-459.616"/>
<polygon fill="#d43491" stroke="#d43491" points="310.48,-412.384 300.076,-408.921 305.506,-412.891 300.532,-413.398 300.532,-413.398 300.532,-413.398 305.506,-412.891 300.988,-417.875 310.48,-412.384 310.48,-412.384"/>
<text text-anchor="middle" x="714.5" y="-432.3" font-family="Times,serif" font-size="14.00">blockades_by</text>
</g>
<!-- Amistad::Friendships::UserFriendship -->
<g id="node8" class="node"><title>Amistad::Friendships::UserFriendship</title>
<ellipse fill="none" stroke="black" cx="302" cy="-164" rx="150.205" ry="18"/>
<text text-anchor="middle" x="302" y="-160.3" font-family="Times,serif" font-size="14.00">Amistad::Friendships::UserFriendship</text>
</g>
<!-- User&#45;&gt;Amistad::Friendships::UserFriendship -->
<g id="edge7" class="edge"><title>User&#45;&gt;Amistad::Friendships::UserFriendship</title>
<path fill="none" stroke="#b4cf9d" d="M153.886,-284.601C155.557,-275.388 158.491,-266.441 163,-258 180.975,-224.346 217.121,-200.737 248.047,-185.729"/>
<ellipse fill="none" stroke="#b4cf9d" cx="153.294" cy="-288.798" rx="4.00001" ry="4.00001"/>
<polygon fill="#b4cf9d" stroke="#b4cf9d" points="248.388,-185.57 259.352,-185.425 252.919,-183.458 257.451,-181.346 257.451,-181.346 257.451,-181.346 252.919,-183.458 255.55,-177.267 248.388,-185.57 248.388,-185.57"/>
<text text-anchor="middle" x="194.5" y="-262.3" font-family="Times,serif" font-size="14.00">friendships</text>
</g>
<!-- User&#45;&gt;Amistad::Friendships::UserFriendship -->
<g id="edge10" class="edge"><title>User&#45;&gt;Amistad::Friendships::UserFriendship</title>
<path fill="none" stroke="#257198" d="M238.449,-285.097C241.789,-275.846 245.309,-266.747 249,-258 258.966,-234.38 273.582,-209.21 284.942,-191.02"/>
<ellipse fill="none" stroke="#257198" cx="237.021" cy="-289.129" rx="4.00001" ry="4.00001"/>
<polygon fill="#257198" stroke="#257198" points="285.187,-190.633 294.344,-184.6 287.866,-186.411 290.544,-182.189 290.544,-182.189 290.544,-182.189 287.866,-186.411 286.744,-179.778 285.187,-190.633 285.187,-190.633"/>
<text text-anchor="middle" x="304" y="-262.3" font-family="Times,serif" font-size="14.00">inverse_friendships</text>
</g>
<!-- User&#45;&gt;Amistad::Friendships::UserFriendship -->
<g id="edge13" class="edge"><title>User&#45;&gt;Amistad::Friendships::UserFriendship</title>
<path fill="none" stroke="#42c6d7" d="M306.512,-350.673C327.862,-328.271 347.266,-302.328 359,-274 371.501,-243.821 348.712,-210.791 328.343,-189.092"/>
<ellipse fill="none" stroke="#42c6d7" cx="303.537" cy="-353.727" rx="4.00002" ry="4.00002"/>
<polygon fill="#42c6d7" stroke="#42c6d7" points="328.303,-189.051 324.513,-178.761 324.802,-185.482 321.301,-181.912 321.301,-181.912 321.301,-181.912 324.802,-185.482 318.088,-185.063 328.303,-189.051 328.303,-189.051"/>
<text text-anchor="middle" x="419" y="-262.3" font-family="Times,serif" font-size="14.00">blocked_friendships</text>
</g>
<!-- ActiveRecord::Base -->
<g id="node6" class="node"><title>ActiveRecord::Base</title>
<ellipse fill="none" stroke="black" cx="564" cy="-657" rx="83.2649" ry="18"/>
<text text-anchor="middle" x="564" y="-653.3" font-family="Times,serif" font-size="14.00">ActiveRecord::Base</text>
</g>
<!-- ActiveRecord::Base&#45;&gt;Btu -->
<g id="edge1" class="edge"><title>ActiveRecord::Base&#45;&gt;Btu</title>
<path fill="none" stroke="black" d="M532.063,-640.265C514.466,-632.288 491.991,-623.21 471,-618 387.775,-597.345 146.085,-642.145 87,-580 -3.58129,-484.727 24.6732,-314.775 48.4703,-224.761"/>
</g>
<!-- ActiveRecord::Base&#45;&gt;Code -->
<g id="edge3" class="edge"><title>ActiveRecord::Base&#45;&gt;Code</title>
<path fill="none" stroke="black" d="M646.571,-653.982C761.337,-649.236 960.076,-633.328 1005,-580 1087.47,-482.106 1051.04,-411.434 1005,-292 994.836,-265.634 976.379,-241.347 957.184,-221.227"/>
</g>
<!-- ActiveRecord::Base&#45;&gt;CodeUrl -->
<g id="edge4" class="edge"><title>ActiveRecord::Base&#45;&gt;CodeUrl</title>
<path fill="none" stroke="black" d="M644.34,-651.918C706.782,-645.003 792.499,-626.892 852,-580 881.122,-557.049 900.643,-519.945 912.742,-489.284"/>
</g>
<!-- ActiveRecord::Base&#45;&gt;User -->
<g id="edge16" class="edge"><title>ActiveRecord::Base&#45;&gt;User</title>
<path fill="none" stroke="black" d="M537.087,-639.896C487.975,-610.509 381.452,-546.77 300.818,-498.522"/>
</g>
</g>
</svg>
